<?xml version="1.0" encoding="utf-8"?>
<?xml-stylesheet type="text/xsl" href="rss1.xsl"?>
<rss version="2.0" xmlns:atom="http://www.w3.org/2005/Atom" xmlns:content="http://purl.org/rss/1.0/modules/content/" xmlns:dc="http://purl.org/dc/elements/1.1/" xmlns:media="http://search.yahoo.com/mrss/">
<channel>
 <title>Getty</title>
 <link>http://www.gettyimg.com/</link>
 <atom:link href="http://www.gettyimg.com/" rel="self" type="application/rss+xml" />

 
                <item>
                <title><![CDATA[【Interviews / TV shows / Others】HDTV - Abba Then &amp; Now: In Their Own Words (1080i) (HDTV) (DD5.1) [MAVERICK]]]></title>
                <link><![CDATA[https://sharemania.us/threads/abba-then-now-in-their-own-words-1080i-hdtv-dd5-1-maverick.223733/]]></link>
                <description><![CDATA[<article>
<blockquote class="messageText SelectQuoteContainer ugc baseHtml">
<div style="text-align: center"><b>Abba Then &amp; Now: In Their Own Words (1080i) (HDTV) (DD5.1) [MAVERICK]</b>​</div><img src="https://i.postimg.cc/8cJp43cf/Abba-Then-Now-In-Their-Own-Words-1080i-HDTV-DD5-1-MAVERICK.jpg" class="bbCodeImage LbImage" alt="[​IMG]" data-url="https://i.postimg.cc/8cJp43cf/Abba-Then-Now-In-Their-Own-Words-1080i-HDTV-DD5-1-MAVERICK.jpg" style="">
<div class="ToggleTriggerAnchor bbCodeSpoilerContainer">
<button type="button" class="button bbCodeSpoilerButton ToggleTrigger Tooltip JsOnly" data-target="> .SpoilerTarget"><span>Spoiler: <span class="SpoilerTitle">Media Info:</span></span></button>
<div class="SpoilerTarget bbCodeSpoilerText">General<br>
Complete name : C:\Users\Maverick\Desktop\Abba Then &amp; Now; In Their Own Words (1080i) (HDTV) (DD5.1) [MAVERICK].mkv<br>
Format : Matroska<br>
Format version : Version 4<br>
File size : 1.73 GiB<br>
Duration : 45 min 25 s<br>
Overall bit rate : 5 438 kb/s<br>
Movie name : Abba Then &amp; Now: In Their Own Words (1080i) (HDTV) (DD5.1) [MAVERICK]<br>
Encoded date : UTC 2023-07-01 10:17:51<br>
Writing application : mkvmerge v74.0.0 ('You Oughta Know') 64-bit<br>
Writing library : libebml v1.4.4 + libmatroska v1.7.1<br>
<br>
Video<br>
ID : 1<br>
Format : HEVC<br>
Format/Info : High Efficiency Video Coding<br>
Format profile : Main 10@L4@Main<br>
Codec ID : V_MPEGH/ISO/HEVC<br>
Duration : 45 min 25 s<br>
Bit rate : 4796 kb/s<br>
Width : 1920 pixels<br>
Height : 1080 pixels<br>
Display aspect ratio : 16:9<br>
Frame rate mode : Constant<br>
Frame rate : 25.000 FPS<br>
Color space : YUV<br>
Chroma subsampling : 4:2:0<br>
Bit depth : 10 bits<br>
Bits/(Pixel*Frame) : 0.093<br>
Stream size : 1.52 GiB (88%)<br>
Title : Abba Then &amp; Now: In Their Own Words (1080i) (HDTV) (DD5.1) [MAVERICK]<br>
Writing library : x265 3.5+10+13-7c9bc0cb14:[Windows][GCC 10.2.0][64 bit] 10bit<br>
Encoding settings : cpuid=1111039 / frame-threads=3 / numa-pools=12 / wpp / no-pmode / no-pme / no-psnr / no-ssim / log-level=2 / input-csp=1 / input-res=1920x1080 / interlace=0 / total-frames=68128 / level-idc=0 / high-tier=1 / uhd-bd=0 / ref=3 / no-allow-non-conformance / no-repeat-headers / annexb / no-aud / no-eob / no-eos / no-hrd / info / hash=0 / no-temporal-layers / open-gop / min-keyint=25 / keyint=250 / gop-lookahead=0 / bframes=4 / b-adapt=2 / b-pyramid / bframe-bias=0 / rc-lookahead=20 / lookahead-slices=6 / scenecut=40 / hist-scenecut=0 / radl=0 / no-splice / no-intra-refresh / ctu=64 / min-cu-size=8 / no-rect / no-amp / max-tu-size=32 / tu-inter-depth=1 / tu-intra-depth=1 / limit-tu=0 / rdoq-level=0 / dynamic-rd=0.00 / no-ssim-rd / signhide / no-tskip / nr-intra=0 / nr-inter=0 / no-constrained-intra / strong-intra-smoothing / max-merge=3 / limit-refs=3 / no-limit-modes / me=1 / subme=2 / merange=57 / temporal-mvp / no-frame-dup / no-hme / weightp / no-weightb / no-analyze-src-pics / deblock=0:0 / sao / no-sao-non-deblock / rd=3 / selective-sao=4 / early-skip / rskip / no-fast-intra / no-tskip-fast / no-cu-lossless / b-intra / no-splitrd-skip / rdpenalty=0 / psy-rd=2.00 / psy-rdoq=0.00 / no-rd-refine / no-lossless / cbqpoffs=0 / crqpoffs=0 / rc=crf / crf=18.0 / qcomp=0.60 / qpstep=4 / stats-write=0 / stats-read=0 / ipratio=1.40 / pbratio=1.30 / aq-mode=2 / aq-strength=1.00 / cutree / zone-count=0 / no-strict-cbr / qg-size=32 / no-rc-grain / qpmax=69 / qpmin=0 / no-const-vbv / sar=0 / overscan=0 / videoformat=5 / range=0 / colorprim=2 / transfer=2 / colormatrix=2 / chromaloc=0 / display-window=0 / cll=0,0 / min-luma=0 / max-luma=1023 / log2-max-poc-lsb=8 / vui-timing-info / vui-hrd-info / slices=1 / no-opt-qp-pps / no-opt-ref-list-length-pps / no-multi-pass-opt-rps / scenecut-bias=0.05 / hist-threshold=0.03 / no-opt-cu-delta-qp / no-aq-motion / no-hdr10 / no-hdr10-opt / no-dhdr10-opt / no-idr-recovery-sei / analysis-reuse-level=0 / analysis-save-reuse-level=0 / analysis-load-reuse-level=0 / scale-factor=0 / refine-intra=0 / refine-inter=0 / refine-mv=1 / refine-ctu-distortion=0 / no-limit-sao / ctu-info=0 / no-lowpass-dct / refine-analysis-type=0 / copy-pic=1 / max-ausize-factor=1.0 / no-dynamic-refine / no-single-sei / no-hevc-aq / no-svt / no-field / qp-adaptation-range=1.00 / scenecut-aware-qp=0 / conformance-window-right-offset=0 / conformance-window-bottom-offset=0 / decoder-max-rate=0 / no-vbv-live-multi-pass<br>
Language : English<br>
Default : Yes<br>
Forced : Yes<br>
<br>
Audio<br>
ID : 2<br>
Format : AC-3<br>
Format/Info : Audio Coding 3<br>
Commercial name : Dolby Digital<br>
Codec ID : A_AC3<br>
Duration : 45 min 25 s<br>
Bit rate mode : Constant<br>
Bit rate : 640 kb/s<br>
Channel(s) : 6 channels<br>
Channel layout : L R C LFE Ls Rs<br>
Sampling rate : 48.0 kHz<br>
Frame rate : 31.250 FPS (1536 SPF)<br>
Compression mode : Lossy<br>
Stream size : 208 MiB (12%)<br>
Title : DD5.1<br>
Language : English<br>
Service kind : Complete Main<br>
Default : Yes<br>
Forced : Yes<br>
<br>
Menu<br>
00:00:00.000 : Chapter 1<br>
00:08:14.280 : Chapter 2<br>
00:23:24.160 : Chapter 3<br>
00:36:52.080 : Chapter 4</div>
</div><div style="text-align: left">
<div class="ToggleTriggerAnchor bbCodeSpoilerContainer">
<button type="button" class="button bbCodeSpoilerButton ToggleTrigger Tooltip JsOnly" data-target="> .SpoilerTarget"><span>Spoiler: <span class="SpoilerTitle">Download:</span></span></button>
<div class="SpoilerTarget bbCodeSpoilerText">
<div class="bbCodeBlock bbCodeVfcHH HiddenContent">
<div class="attribution type">Hidden Content:</div>
<blockquote>You must either reply or click 'Like' to see the hidden information contained here.</blockquote>
</div></div>
</div></div><div style="text-align: center"><b><b>Please Note This File Has Been uploaded to Gofile, because its free fast upload and download speeds Grab it while you can, Admin should reupload My files to google drive.</b></b><br>
<br>
<b><b><b><b>Please Credit Me Maverick if you are going to upload my files elsewhere!</b></b></b><br>
<br>
<b><b>New Content will only Be Uploaded from this Account <a href="https://sharemania.us/members/176676/" class="username" data-user="176676, @Maverick">@Maverick</a></b></b></b>​</div><br>
<div style="text-align: center"><br>
<b><b><b>Enjoy <img src="styles/default/xenforo/smilies/big_smile-48.png" class="mceSmilie" alt=":)" title="Smile    :)"></b></b></b>​</div>
<div class="messageTextEndMarker">&nbsp;</div>
</blockquote>
</article>]]></description>
                <author><![CDATA[Maverick]]></author>
                </item>

                
                <item>
                <title><![CDATA[【Helpdesk】Google Drive access requests]]></title>
                <link><![CDATA[https://sharemania.us/threads/google-drive-access-requests.223734/]]></link>
                <description><![CDATA[<article>
<blockquote class="messageText SelectQuoteContainer ugc baseHtml">
Hi, most GD links I try now present a "You need access" message instead of a direct link. Then I have to request access and wait on an email. I have done this several times, never get any authorisation emails. Is this a setting created by the uploader, or has GD changed something recently? Most files seem to be behind this wall now and are inaccessible.<br>
<br>
I've tried switching accounts in GD, it makes no difference.
<div class="messageTextEndMarker">&nbsp;</div>
</blockquote>
</article>]]></description>
                <author><![CDATA[orgulo]]></author>
                </item>

                
                <item>
                <title><![CDATA[【Interviews / TV shows / Others】HDTV - Queen &amp; Adam Lambert: The Show Must Go On (1080i) (HDTV) (DD5.1) [MAVERICK]]]></title>
                <link><![CDATA[https://sharemania.us/threads/queen-adam-lambert-the-show-must-go-on-1080i-hdtv-dd5-1-maverick.223735/]]></link>
                <description><![CDATA[<article>
<blockquote class="messageText SelectQuoteContainer ugc baseHtml">
<div style="text-align: center"><b>Queen &amp; Adam Lambert: The Show Must Go On (1080i) (HDTV) (DD5.1) [MAVERICK]<br>
<img src="https://i.postimg.cc/d1XnkWfV/Queen-Adam-Lambert-The-Show-Must-Go-On-1080i-HDTV-DD5-1-MAVERICK.jpg" class="bbCodeImage LbImage" alt="[​IMG]" data-url="https://i.postimg.cc/d1XnkWfV/Queen-Adam-Lambert-The-Show-Must-Go-On-1080i-HDTV-DD5-1-MAVERICK.jpg" style=""> </b>​</div>
<div class="ToggleTriggerAnchor bbCodeSpoilerContainer">
<button type="button" class="button bbCodeSpoilerButton ToggleTrigger Tooltip JsOnly" data-target="> .SpoilerTarget"><span>Spoiler: <span class="SpoilerTitle">Media Info:</span></span></button>
<div class="SpoilerTarget bbCodeSpoilerText">General<br>
Complete name : C:\Users\Maverick\Desktop\Queen &amp; Adam Lambert: The Show Must Go On (1080i) (HDTV) (DD5.1) [MAVERICK].mkv<br>
Format : Matroska<br>
Format version : Version 4<br>
File size : 3.20 GiB<br>
Duration : 1 h 25 min<br>
Overall bit rate : 5 363 kb/s<br>
Movie name : Queen &amp; Adam Lambert: The Show Must Go On (1080i) (HDTV) (DD5.1) [MAVERICK]<br>
Encoded date : UTC 2023-07-01 10:24:38<br>
Writing application : mkvmerge v74.0.0 ('You Oughta Know') 64-bit<br>
Writing library : libebml v1.4.4 + libmatroska v1.7.1<br>
<br>
Video<br>
ID : 1<br>
Format : HEVC<br>
Format/Info : High Efficiency Video Coding<br>
Format profile : Main 10@L4@Main<br>
Codec ID : V_MPEGH/ISO/HEVC<br>
Duration : 1 h 25 min<br>
Bit rate : 4721 kb/s<br>
Width : 1920 pixels<br>
Height : 1080 pixels<br>
Display aspect ratio : 16:9<br>
Frame rate mode : Constant<br>
Frame rate : 25.000 FPS<br>
Color space : YUV<br>
Chroma subsampling : 4:2:0<br>
Bit depth : 10 bits<br>
Bits/(Pixel*Frame) : 0.091<br>
Stream size : 2.81 GiB (88%)<br>
Title : Queen &amp; Adam Lambert: The Show Must Go On (1080i) (HDTV) (DD5.1) [MAVERICK]<br>
Writing library : x265 3.5+10+13-7c9bc0cb14:[Windows][GCC 10.2.0][64 bit] 10bit<br>
Encoding settings : cpuid=1111039 / frame-threads=3 / numa-pools=12 / wpp / no-pmode / no-pme / no-psnr / no-ssim / log-level=2 / input-csp=1 / input-res=1920x1080 / interlace=0 / total-frames=128050 / level-idc=0 / high-tier=1 / uhd-bd=0 / ref=3 / no-allow-non-conformance / no-repeat-headers / annexb / no-aud / no-eob / no-eos / no-hrd / info / hash=0 / no-temporal-layers / open-gop / min-keyint=25 / keyint=250 / gop-lookahead=0 / bframes=4 / b-adapt=2 / b-pyramid / bframe-bias=0 / rc-lookahead=20 / lookahead-slices=6 / scenecut=40 / hist-scenecut=0 / radl=0 / no-splice / no-intra-refresh / ctu=64 / min-cu-size=8 / no-rect / no-amp / max-tu-size=32 / tu-inter-depth=1 / tu-intra-depth=1 / limit-tu=0 / rdoq-level=0 / dynamic-rd=0.00 / no-ssim-rd / signhide / no-tskip / nr-intra=0 / nr-inter=0 / no-constrained-intra / strong-intra-smoothing / max-merge=3 / limit-refs=3 / no-limit-modes / me=1 / subme=2 / merange=57 / temporal-mvp / no-frame-dup / no-hme / weightp / no-weightb / no-analyze-src-pics / deblock=0:0 / sao / no-sao-non-deblock / rd=3 / selective-sao=4 / early-skip / rskip / no-fast-intra / no-tskip-fast / no-cu-lossless / b-intra / no-splitrd-skip / rdpenalty=0 / psy-rd=2.00 / psy-rdoq=0.00 / no-rd-refine / no-lossless / cbqpoffs=0 / crqpoffs=0 / rc=crf / crf=18.0 / qcomp=0.60 / qpstep=4 / stats-write=0 / stats-read=0 / ipratio=1.40 / pbratio=1.30 / aq-mode=2 / aq-strength=1.00 / cutree / zone-count=0 / no-strict-cbr / qg-size=32 / no-rc-grain / qpmax=69 / qpmin=0 / no-const-vbv / sar=0 / overscan=0 / videoformat=5 / range=0 / colorprim=2 / transfer=2 / colormatrix=2 / chromaloc=0 / display-window=0 / cll=0,0 / min-luma=0 / max-luma=1023 / log2-max-poc-lsb=8 / vui-timing-info / vui-hrd-info / slices=1 / no-opt-qp-pps / no-opt-ref-list-length-pps / no-multi-pass-opt-rps / scenecut-bias=0.05 / hist-threshold=0.03 / no-opt-cu-delta-qp / no-aq-motion / no-hdr10 / no-hdr10-opt / no-dhdr10-opt / no-idr-recovery-sei / analysis-reuse-level=0 / analysis-save-reuse-level=0 / analysis-load-reuse-level=0 / scale-factor=0 / refine-intra=0 / refine-inter=0 / refine-mv=1 / refine-ctu-distortion=0 / no-limit-sao / ctu-info=0 / no-lowpass-dct / refine-analysis-type=0 / copy-pic=1 / max-ausize-factor=1.0 / no-dynamic-refine / no-single-sei / no-hevc-aq / no-svt / no-field / qp-adaptation-range=1.00 / scenecut-aware-qp=0 / conformance-window-right-offset=0 / conformance-window-bottom-offset=0 / decoder-max-rate=0 / no-vbv-live-multi-pass<br>
Language : English<br>
Default : Yes<br>
Forced : Yes<br>
<br>
Audio<br>
ID : 2<br>
Format : AC-3<br>
Format/Info : Audio Coding 3<br>
Commercial name : Dolby Digital<br>
Codec ID : A_AC3<br>
Duration : 1 h 25 min<br>
Bit rate mode : Constant<br>
Bit rate : 640 kb/s<br>
Channel(s) : 6 channels<br>
Channel layout : L R C LFE Ls Rs<br>
Sampling rate : 48.0 kHz<br>
Frame rate : 31.250 FPS (1536 SPF)<br>
Compression mode : Lossy<br>
Stream size : 391 MiB (12%)<br>
Title : DD5.1<br>
Language : English<br>
Service kind : Complete Main<br>
Default : Yes<br>
Forced : Yes<br>
<br>
Menu<br>
00:00:00.000 : Chapter 1<br>
00:16:35.120 : Chapter 2<br>
00:33:24.880 : Chapter 3<br>
00:50:07.280 : Chapter 4<br>
01:04:51.120 : Chapter 5</div>
</div>
<div class="ToggleTriggerAnchor bbCodeSpoilerContainer">
<button type="button" class="button bbCodeSpoilerButton ToggleTrigger Tooltip JsOnly" data-target="> .SpoilerTarget"><span>Spoiler: <span class="SpoilerTitle">Download:</span></span></button>
<div class="SpoilerTarget bbCodeSpoilerText">
<div class="bbCodeBlock bbCodeVfcHH HiddenContent">
<div class="attribution type">Hidden Content:</div>
<blockquote>You must either reply or click 'Like' to see the hidden information contained here.</blockquote>
</div></div>
</div><div style="text-align: center"><b><b>Please Note This File Has Been uploaded to Gofile, because its free fast upload and download speeds Grab it while you can, Admin should reupload My files to google drive.</b></b><br>
<br>
<b><b><b><b>Please Credit Me Maverick if you are going to upload my files elsewhere!</b></b></b><br>
</b>​</div><b><b><div style="text-align: center"><b>New Content will only Be Uploaded from this Account <a href="https://sharemania.us/members/176676/" class="username" data-user="176676, @Maverick">@Maverick</a></b>​</div></b></b><br>
<div style="text-align: center">​</div><b><div style="text-align: center"><b><b>Enjoy <img src="styles/default/xenforo/smilies/big_smile-48.png" class="mceSmilie" alt=":)" title="Smile    :)"></b></b>​</div></b>
<div class="messageTextEndMarker">&nbsp;</div>
</blockquote>
</article>]]></description>
                <author><![CDATA[Maverick]]></author>
                </item>

                
                <item>
                <title><![CDATA[【Interviews / TV shows / Others】HDTV - Abba: The Missing 40 Years (1080i) (HDTV) (DD5.1) [MAVERICK]]]></title>
                <link><![CDATA[https://sharemania.us/threads/abba-the-missing-40-years-1080i-hdtv-dd5-1-maverick.223732/]]></link>
                <description><![CDATA[<article>
<blockquote class="messageText SelectQuoteContainer ugc baseHtml">
<div style="text-align: center"><b>Abba: The Missing 40 Years (1080i) (HDTV) (DD5.1) [MAVERICK]<br>
<img src="https://i.postimg.cc/15w7FHBW/Abba-The-Missing-40-Years-1080i-HDTV-DD5-1-MAVERICK.jpg" class="bbCodeImage LbImage" alt="[​IMG]" data-url="https://i.postimg.cc/15w7FHBW/Abba-The-Missing-40-Years-1080i-HDTV-DD5-1-MAVERICK.jpg" style=""></b>​</div>
<div class="ToggleTriggerAnchor bbCodeSpoilerContainer">
<button type="button" class="button bbCodeSpoilerButton ToggleTrigger Tooltip JsOnly" data-target="> .SpoilerTarget"><span>Spoiler: <span class="SpoilerTitle">Media Info:</span></span></button>
<div class="SpoilerTarget bbCodeSpoilerText">General<br>
Complete name : C:\Users\Maverick\Desktop\Abba: The Missing 40 Years (1080i) (HDTV) (DD5.1) [MAVERICK].mkv<br>
Format : Matroska<br>
Format version : Version 4<br>
File size : 2.24 GiB<br>
Duration : 1 h 7 min<br>
Overall bit rate : 4 745 kb/s<br>
Movie name : Abba: The Missing 40 Years (1080i) (HDTV) (DD5.1) [MAVERICK]<br>
Encoded date : UTC 2023-07-01 10:14:04<br>
Writing application : mkvmerge v74.0.0 ('You Oughta Know') 64-bit<br>
Writing library : libebml v1.4.4 + libmatroska v1.7.1<br>
<br>
Video<br>
ID : 1<br>
Format : HEVC<br>
Format/Info : High Efficiency Video Coding<br>
Format profile : Main 10@L4@Main<br>
Codec ID : V_MPEGH/ISO/HEVC<br>
Duration : 1 h 7 min<br>
Bit rate : 4104 kb/s<br>
Width : 1920 pixels<br>
Height : 1080 pixels<br>
Display aspect ratio : 16:9<br>
Frame rate mode : Constant<br>
Frame rate : 25.000 FPS<br>
Color space : YUV<br>
Chroma subsampling : 4:2:0<br>
Bit depth : 10 bits<br>
Bits/(Pixel*Frame) : 0.079<br>
Stream size : 1.93 GiB (86%)<br>
Title : Abba: The Missing 40 Years (1080i) (HDTV) (DD5.1) [MAVERICK]<br>
Writing library : x265 3.5+10+13-7c9bc0cb14:[Windows][GCC 10.2.0][64 bit] 10bit<br>
Encoding settings : cpuid=1111039 / frame-threads=3 / numa-pools=12 / wpp / no-pmode / no-pme / no-psnr / no-ssim / log-level=2 / input-csp=1 / input-res=1920x1080 / interlace=0 / total-frames=101252 / level-idc=0 / high-tier=1 / uhd-bd=0 / ref=3 / no-allow-non-conformance / no-repeat-headers / annexb / no-aud / no-eob / no-eos / no-hrd / info / hash=0 / no-temporal-layers / open-gop / min-keyint=25 / keyint=250 / gop-lookahead=0 / bframes=4 / b-adapt=2 / b-pyramid / bframe-bias=0 / rc-lookahead=20 / lookahead-slices=6 / scenecut=40 / hist-scenecut=0 / radl=0 / no-splice / no-intra-refresh / ctu=64 / min-cu-size=8 / no-rect / no-amp / max-tu-size=32 / tu-inter-depth=1 / tu-intra-depth=1 / limit-tu=0 / rdoq-level=0 / dynamic-rd=0.00 / no-ssim-rd / signhide / no-tskip / nr-intra=0 / nr-inter=0 / no-constrained-intra / strong-intra-smoothing / max-merge=3 / limit-refs=3 / no-limit-modes / me=1 / subme=2 / merange=57 / temporal-mvp / no-frame-dup / no-hme / weightp / no-weightb / no-analyze-src-pics / deblock=0:0 / sao / no-sao-non-deblock / rd=3 / selective-sao=4 / early-skip / rskip / no-fast-intra / no-tskip-fast / no-cu-lossless / b-intra / no-splitrd-skip / rdpenalty=0 / psy-rd=2.00 / psy-rdoq=0.00 / no-rd-refine / no-lossless / cbqpoffs=0 / crqpoffs=0 / rc=crf / crf=18.0 / qcomp=0.60 / qpstep=4 / stats-write=0 / stats-read=0 / ipratio=1.40 / pbratio=1.30 / aq-mode=2 / aq-strength=1.00 / cutree / zone-count=0 / no-strict-cbr / qg-size=32 / no-rc-grain / qpmax=69 / qpmin=0 / no-const-vbv / sar=0 / overscan=0 / videoformat=5 / range=0 / colorprim=2 / transfer=2 / colormatrix=2 / chromaloc=0 / display-window=0 / cll=0,0 / min-luma=0 / max-luma=1023 / log2-max-poc-lsb=8 / vui-timing-info / vui-hrd-info / slices=1 / no-opt-qp-pps / no-opt-ref-list-length-pps / no-multi-pass-opt-rps / scenecut-bias=0.05 / hist-threshold=0.03 / no-opt-cu-delta-qp / no-aq-motion / no-hdr10 / no-hdr10-opt / no-dhdr10-opt / no-idr-recovery-sei / analysis-reuse-level=0 / analysis-save-reuse-level=0 / analysis-load-reuse-level=0 / scale-factor=0 / refine-intra=0 / refine-inter=0 / refine-mv=1 / refine-ctu-distortion=0 / no-limit-sao / ctu-info=0 / no-lowpass-dct / refine-analysis-type=0 / copy-pic=1 / max-ausize-factor=1.0 / no-dynamic-refine / no-single-sei / no-hevc-aq / no-svt / no-field / qp-adaptation-range=1.00 / scenecut-aware-qp=0 / conformance-window-right-offset=0 / conformance-window-bottom-offset=0 / decoder-max-rate=0 / no-vbv-live-multi-pass<br>
Language : English<br>
Default : Yes<br>
Forced : Yes<br>
<br>
Audio<br>
ID : 2<br>
Format : AC-3<br>
Format/Info : Audio Coding 3<br>
Commercial name : Dolby Digital<br>
Codec ID : A_AC3<br>
Duration : 1 h 7 min<br>
Bit rate mode : Constant<br>
Bit rate : 640 kb/s<br>
Channel(s) : 6 channels<br>
Channel layout : L R C LFE Ls Rs<br>
Sampling rate : 48.0 kHz<br>
Frame rate : 31.250 FPS (1536 SPF)<br>
Compression mode : Lossy<br>
Stream size : 309 MiB (13%)<br>
Title : DD5.1<br>
Language : English<br>
Service kind : Complete Main<br>
Default : Yes<br>
Forced : Yes<br>
<br>
Menu<br>
00:00:00.000 : Chapter 1<br>
00:11:39.040 : Chapter 2<br>
00:27:01.360 : Chapter 3<br>
00:37:39.200 : Chapter 4<br>
00:49:14.880 : Chapter 5<br>
01:00:24.080 : Chapter 6</div>
</div><div style="text-align: left">
<div class="ToggleTriggerAnchor bbCodeSpoilerContainer">
<button type="button" class="button bbCodeSpoilerButton ToggleTrigger Tooltip JsOnly" data-target="> .SpoilerTarget"><span>Spoiler: <span class="SpoilerTitle">Download:</span></span></button>
<div class="SpoilerTarget bbCodeSpoilerText">
<div class="bbCodeBlock bbCodeVfcHH HiddenContent">
<div class="attribution type">Hidden Content:</div>
<blockquote>You must either reply or click 'Like' to see the hidden information contained here.</blockquote>
</div></div>
</div></div><div style="text-align: center"><b><b>Please Note This File Has Been uploaded to Gofile, because its free fast upload and download speeds Grab it while you can, Admin should reupload My files to google drive.</b></b><br>
<br>
<b><b><b><b>Please Credit Me Maverick if you are going to upload my files elsewhere!</b></b></b><br>
<br>
<b><b>New Content will only Be Uploaded from this Account <a href="https://sharemania.us/members/176676/" class="username" data-user="176676, @Maverick">@Maverick</a></b></b></b>​</div> <br>
<div style="text-align: center"><br>
<b><b><b>Enjoy <img src="styles/default/xenforo/smilies/big_smile-48.png" class="mceSmilie" alt=":)" title="Smile    :)"></b></b></b>​</div>
<div class="messageTextEndMarker">&nbsp;</div>
</blockquote>
</article>]]></description>
                <author><![CDATA[Maverick]]></author>
                </item>

                </channel></rss>